<svg xmlns="http://www.w3.org/2000/svg" width="15.886" height="13.765" viewBox="0 0 15.886 13.765">
  <g id="layers_1_" data-name="layers (1)" transform="translate(0 -34.184)">
    <g id="Group_2309" data-name="Group 2309" transform="translate(0 34.184)">
      <g id="Group_2308" data-name="Group 2308" transform="translate(0 0)">
        <path id="Path_915" data-name="Path 915" d="M15.516,37.374,8.2,34.234a.624.624,0,0,0-.492,0L.386,37.374a.624.624,0,0,0,0,1.147L7.706,41.64a.624.624,0,0,0,.489,0l7.319-3.119a.624.624,0,0,0,0-1.147ZM7.951,40.388,2.218,37.945l5.732-2.459,5.732,2.459Z" transform="translate(-0.008 -34.184)" fill="#40547b"/>
      </g>
    </g>
    <g id="Group_2311" data-name="Group 2311" transform="translate(0 43.561)">
      <g id="Group_2310" data-name="Group 2310" transform="translate(0)">
        <path id="Path_916" data-name="Path 916" d="M15.835,336.782a.624.624,0,0,0-.819-.327l-7.073,3.034L.869,336.455A.624.624,0,1,0,.378,337.6l7.319,3.14a.624.624,0,0,0,.492,0l7.319-3.14A.624.624,0,0,0,15.835,336.782Z" transform="translate(0 -336.404)" fill="#40547b"/>
      </g>
    </g>
    <g id="Group_2313" data-name="Group 2313" transform="translate(0 40.442)">
      <g id="Group_2312" data-name="Group 2312" transform="translate(0 0)">
        <path id="Path_917" data-name="Path 917" d="M15.842,236.268a.624.624,0,0,0-.818-.329l-7.075,3.015L.875,235.939a.624.624,0,0,0-.489,1.148L7.7,240.205a.624.624,0,0,0,.489,0l7.319-3.119A.624.624,0,0,0,15.842,236.268Z" transform="translate(-0.007 -235.889)" fill="#40547b"/>
      </g>
    </g>
  </g>
</svg>
