<svg xmlns="http://www.w3.org/2000/svg" width="15.797" height="16.207" viewBox="0 0 15.797 16.207">
  <g id="Group_2321" data-name="Group 2321" transform="translate(-71.576 -267.619)">
    <g id="Group_2320" data-name="Group 2320" transform="translate(71.576 267.619)">
      <g id="Group_2318" data-name="Group 2318" transform="translate(6.337 0)">
        <path id="Path_920" data-name="Path 920" d="M232.013,107.006h-4.268a3.128,3.128,0,0,1-3.124-3.124V99.614a3.128,3.128,0,0,1,3.124-3.124h4.268a3.128,3.128,0,0,1,3.124,3.124v4.268A3.128,3.128,0,0,1,232.013,107.006Zm-4.268-9.215a1.825,1.825,0,0,0-1.823,1.823v4.268a1.825,1.825,0,0,0,1.823,1.823h4.268a1.825,1.825,0,0,0,1.823-1.823V99.614a1.825,1.825,0,0,0-1.823-1.823Z" transform="translate(-225.677 -96.49)" fill="#40547b"/>
      </g>
      <g id="Group_2319" data-name="Group 2319" transform="translate(0 4.228)">
        <path id="Path_921" data-name="Path 921" d="M158.007,159.034h-6.359a2.814,2.814,0,0,1-2.81-2.81v-6.359a2.814,2.814,0,0,1,2.81-2.81h6.359a2.813,2.813,0,0,1,2.81,2.81v6.359A2.813,2.813,0,0,1,158.007,159.034Zm-6.359-10.809a1.641,1.641,0,0,0-1.64,1.64v6.359a1.641,1.641,0,0,0,1.64,1.64h6.359a1.641,1.641,0,0,0,1.64-1.64v-6.359a1.641,1.641,0,0,0-1.64-1.64Z" transform="translate(-148.838 -147.055)" fill="#40547b"/>
      </g>
    </g>
  </g>
</svg>
