<svg xmlns="http://www.w3.org/2000/svg" width="14.505" height="14.505" viewBox="0 0 14.505 14.505">
  <g id="Group_2345" data-name="Group 2345" transform="translate(-218.848 -247.717)">
    <path id="Path_941" data-name="Path 941" d="M236.957,247.717h-.427a.254.254,0,0,0-.251.231,2.27,2.27,0,0,1-2.023,2.024.254.254,0,0,0-.232.251v.427a.254.254,0,0,0,.232.251,2.27,2.27,0,0,1,2.023,2.023.254.254,0,0,0,.251.231h.427a.254.254,0,0,0,.251-.231,2.27,2.27,0,0,1,2.023-2.023.254.254,0,0,0,.231-.251v-.427a.254.254,0,0,0-.231-.251,2.27,2.27,0,0,1-2.023-2.024A.254.254,0,0,0,236.957,247.717Zm-.406,3.525a3.208,3.208,0,0,0-.613-.613.242.242,0,0,1,0-.383,3.174,3.174,0,0,0,.613-.613.242.242,0,0,1,.384,0,3.188,3.188,0,0,0,.613.613.241.241,0,0,1,0,.383,3.222,3.222,0,0,0-.613.613A.242.242,0,0,1,236.552,251.242Z" transform="translate(-6.111 0)" fill="#40547b"/>
    <path id="Path_942" data-name="Path 942" d="M224.918,257.188v.4a.257.257,0,0,0,.219.286,3.178,3.178,0,0,1,2.946,2.947.239.239,0,0,0,.235.219h.4a.256.256,0,0,0,.286-.219,3.178,3.178,0,0,1,2.946-2.947.24.24,0,0,0,.219-.235v-.4a.256.256,0,0,0-.219-.286,3.177,3.177,0,0,1-2.946-2.946.24.24,0,0,0-.235-.219h-.4a.256.256,0,0,0-.286.219,3.177,3.177,0,0,1-2.946,2.946A.24.24,0,0,0,224.918,257.188Zm3.819-1.2a4.109,4.109,0,0,0,1.232,1.232.231.231,0,0,1,0,.386,4.1,4.1,0,0,0-1.232,1.232.23.23,0,0,1-.386,0,4.105,4.105,0,0,0-1.232-1.232.23.23,0,0,1,0-.386,4.107,4.107,0,0,0,1.232-1.232A.231.231,0,0,1,228.737,255.989Z" transform="translate(-2.444 -2.445)" fill="#40547b"/>
    <g id="Group_2344" data-name="Group 2344" transform="translate(218.848 247.717)">
      <path id="Path_943" data-name="Path 943" d="M231.993,261.315H220.208a.453.453,0,0,1-.453-.453V249.077a.454.454,0,0,1,.453-.453h4.08a.454.454,0,0,0,.453-.453h0a.454.454,0,0,0-.453-.453H219.3a.454.454,0,0,0-.453.453v13.6a.453.453,0,0,0,.453.453h13.6a.453.453,0,0,0,.453-.453v-4.986a.453.453,0,0,0-.453-.453h0a.454.454,0,0,0-.453.453v4.08A.453.453,0,0,1,231.993,261.315Z" transform="translate(-218.848 -247.717)" fill="#40547b"/>
    </g>
    <rect id="Rectangle_382" data-name="Rectangle 382" width="0.907" height="0.907" rx="0.453" transform="translate(232.446 254.516)" fill="#40547b"/>
    <rect id="Rectangle_383" data-name="Rectangle 383" width="0.907" height="0.907" rx="0.395" transform="translate(225.647 247.717)" fill="#40547b"/>
  </g>
</svg>
