<svg xmlns="http://www.w3.org/2000/svg" width="18.486" height="18.636" viewBox="0 0 18.486 18.636">
  <g id="cubes" transform="translate(0)">
    <g id="Group_1228" data-name="Group 1228" transform="translate(0 0)">
      <path id="Path_593" data-name="Path 593" d="M18.235,9.829,14.2,7.865V2.64a.546.546,0,0,0-.309-.493L9.525.053a.538.538,0,0,0-.467,0L4.724,2.148a.549.549,0,0,0-.307.491h0V7.853L.353,9.829a.548.548,0,0,0-.306.492v5.556a.546.546,0,0,0,.3.488l4.361,2.214a.553.553,0,0,0,.552-.033l4.033-2.056,4.08,2.088a.553.553,0,0,0,.551-.03l4.319-2.182a.54.54,0,0,0,.292-.488V10.32A.541.541,0,0,0,18.235,9.829ZM4.417,17.208,1.13,15.54V11.207l3.286,1.668Zm.533-5.285L1.814,10.331,4.957,8.8l3.114,1.528Zm3.8,3.618L5.5,17.2V12.865l3.25-1.657Zm0-6.093L5.5,7.855V3.529L8.75,5.19ZM6.183,2.654l3.11-1.5,3.126,1.5L9.292,4.242Zm6.937.862V7.843L9.834,9.449V5.19ZM13.084,17.2l-3.25-1.664V11.21l3.25,1.664Zm.535-5.282-3.1-1.589L13.65,8.808l3.123,1.521Zm3.839,3.617L14.167,17.2V12.867l3.29-1.662Z" transform="translate(-0.047 0)" fill="#7c7ca4"/>
    </g>
  </g>
</svg>
