<svg xmlns="http://www.w3.org/2000/svg" xmlns:xlink="http://www.w3.org/1999/xlink" width="188.68" height="110.099" viewBox="0 0 188.68 110.099">
  <defs>
    <linearGradient id="linear-gradient" x1="-6.187" y1="0.919" x2="-6.287" y2="0.181" gradientUnits="objectBoundingBox">
      <stop offset="0" stop-color="#f79239"/>
      <stop offset="1" stop-color="#f7c759"/>
    </linearGradient>
    <linearGradient id="linear-gradient-2" x1="-14.103" y1="0.5" x2="-13.146" y2="0.5" gradientUnits="objectBoundingBox">
      <stop offset="0" stop-color="#3f2323"/>
      <stop offset="1" stop-color="#5e3434"/>
    </linearGradient>
  </defs>
  <g id="media" transform="translate(-389.86 -812.513)">
    <g id="Group_2723" data-name="Group 2723" transform="translate(541.142 882.54)">
      <path id="Path_1299" data-name="Path 1299" d="M1090.658,198.426s-4.389-9.4,5.724-16.7,12.4-12.6,12.4-12.6,3.416,17.147-2.767,25.284v11.775h-14.97Z" transform="translate(-1084.654 -169.125)" fill="#4e8fb7"/>
      <path id="Path_1300" data-name="Path 1300" d="M1097.842,211.683s.5-6.572-6.344-10.972-6.74-8.836-6.74-8.836-5.253,12.586,1.387,19.808Z" transform="translate(-1082.786 -175.262)" fill="#70b2dd"/>
      <path id="Path_1301" data-name="Path 1301" d="M1101.31,209.963a14.272,14.272,0,0,1,7.581-13.6c8.638-4.747,10.451-10.862,10.451-10.862s4.77,15.426-3.053,24.463Z" transform="translate(-1087.772 -173.542)" fill="#abdaf7"/>
      <path id="Path_1327" data-name="Path 1327" d="M726,43.1c.053.286.105.565.157.845,3.763,20.241,14.774,29.138,14.774,29.138H906.142s10.107-17.772,5.663-33.282c-.067-.236-.135-.472-.209-.7-2.925-9.233-11.177-17.55-30.029-20.678-4.055-.673-7.787-1.317-11.229-1.932-.486-.093-.958-.179-1.429-.265-11.962-2.19-20.3-4.144-26.647-6.377h-.008c-.464-.165-.92-.336-1.368-.5C828,4.493,823.591-1.812,812.04-14.624q-1.346-1.492-2.873-2.927c-.224-.215-.449-.422-.681-.623a64.513,64.513,0,0,0-23.422-13.384c-.239-.079-.479-.157-.718-.229-11.423-3.464-23.834-3.514-34.33,2.548-.4.229-.793.465-1.19.716-8.311,5.246-15.313,14.515-19.5,29.195C724.335,18.228,724.125,32.25,726,43.1Z" transform="translate(-876.192 -33.151)" fill="#fff" opacity="0.36"/>
    </g>
    <g id="Group_2731" data-name="Group 2731" transform="translate(435.699 829.017)">
      <g id="Group_2726" data-name="Group 2726" transform="translate(0 34.723)">
        <g id="Group_2724" data-name="Group 2724" transform="translate(0.589 36.93)">
          <path id="Path_1302" data-name="Path 1302" d="M1024.39,194.535a59.739,59.739,0,0,0,10.387,12.169v4.415h-10.318a85.842,85.842,0,0,1-9.793-6.455S1012.525,191.006,1024.39,194.535Z" transform="translate(-959.515 -193.952)" fill="#f49187"/>
          <path id="Path_1303" data-name="Path 1303" d="M939.2,203.665s.481,8.763,2.771,9.31,11.672-7.58,11.672-7.58l1.067-3.878-6.951-4.851S939.479,199.1,939.2,203.665Z" transform="translate(-939.196 -194.685)" fill="#f49187"/>
        </g>
        <g id="Group_2725" data-name="Group 2725">
          <path id="Path_1304" data-name="Path 1304" d="M938.978,189.29c2.2-4.016,15.746-1.1,15.746-1.1l-9.64,9.281h43.321c-1.435-4.776-.58-16.4-.58-16.4.007.088.023.168.038.256a12.757,12.757,0,0,0,3.213,7.134c.183,2.381,3.053,2.556,3.053,2.556a15.621,15.621,0,0,1,1.473-5.265,8.4,8.4,0,0,1,8.251-4.863c.58-2.921-2.671-3.651-2.671-3.651s-4-22.272-9.823-26.654-15.318-6.572-15.318-6.572l-9.777-.635s-19.172,3.651-22.989,9.946-3.152,30.122-3.152,30.122C937.07,185.821,938.978,189.29,938.978,189.29Z" transform="translate(-938.39 -143.38)" fill="url(#linear-gradient)"/>
          <path id="Path_1305" data-name="Path 1305" d="M960.672,195.409S959.05,181.9,964.3,170.125c0,0-.858,17.891,6.774,22.911s20.607,4.016,23.851,12.779l-28.622-.243Z" transform="translate(-944.337 -150.595)" fill="#f6613a" opacity="0.5"/>
          <path id="Path_1306" data-name="Path 1306" d="M1006.141,189.377a12.758,12.758,0,0,0,3.213,7.134c.183,2.381,3.053,2.556,3.053,2.556a15.621,15.621,0,0,1,1.473-5.265,15.363,15.363,0,0,1-4.243-6.747c-2.023-6.4-.732-13.349-.641-13.845A113.017,113.017,0,0,0,1006.141,189.377Z" transform="translate(-956.666 -151.427)" fill="#f6613a" opacity="0.5"/>
        </g>
      </g>
      <path id="Path_1307" data-name="Path 1307" d="M967.629,209.283s-10.78-7.211-19.94-4.29-8.4,8.945-5.438,10.041h22.834Z" transform="translate(-938.891 -125.09)" fill="#feb19e"/>
      <g id="Group_2727" data-name="Group 2727" transform="translate(24.416)">
        <path id="Path_1308" data-name="Path 1308" d="M973.8,139.112s2.244,12.049,8.922,12.115c5.831.051,4.48-7.266,4.046-9.128-.061-.277-.107-.431-.107-.431l2.42-8.821-12.846-6.506-.259,1.351v.022Z" transform="translate(-972.359 -104.06)" fill="#feb19e"/>
        <path id="Path_1309" data-name="Path 1309" d="M987.515,142.1c-.061-.277-.107-.431-.107-.431l2.42-8.821-12.846-6.506-.259,1.351v.022C975.036,142.1,987.279,142.1,987.515,142.1Z" transform="translate(-973.103 -104.06)" fill="#ff856a"/>
        <path id="Path_1310" data-name="Path 1310" d="M974,113.8a20.9,20.9,0,0,1-2.1-7.166c-.381-3.742.716-4.609,2.338-4.609,0,0,.859-4.245,2.91-5.705s10.4.685,13.6,2.511,5.533-3.2,7.012-2.994,1.765,4.089.62,5.824c0,0,2.672-1.415,3.1-2.876s3.482,1.187,2.385,6.618-3.626,6.116-3.626,6.116-.477,5.751-5.391,6.39-17.888-.456-17.888-.456Z" transform="translate(-971.825 -95.829)" fill="url(#linear-gradient-2)"/>
        <path id="Path_1311" data-name="Path 1311" d="M997.384,116.647s-2.385,15.609-8.4,17.617-11.035-4.131-11.8-5.774a20.977,20.977,0,0,1-1.084-5.087s-2.048.455-2.286-3.014,2.909-5.522,3.673.456c0,0,2.941-1.552,2.051-6.846a13.19,13.19,0,0,0,8.077,3.043c4.707,0,.636-3.043.636-3.043A13.284,13.284,0,0,0,997.384,116.647Z" transform="translate(-972.36 -100.731)" fill="#feb19e"/>
      </g>
      <g id="Group_2730" data-name="Group 2730" transform="translate(11.883 73.277)">
        <g id="Group_2728" data-name="Group 2728" transform="translate(0 9.851)">
          <rect id="Rectangle_486" data-name="Rectangle 486" width="39.18" height="2.008" transform="translate(39.18 6.816) rotate(180)" fill="#abdaf7"/>
          <rect id="Rectangle_487" data-name="Rectangle 487" width="12.085" height="2.008" transform="translate(12.085 6.816) rotate(180)" fill="#70b2dd"/>
          <path id="Path_1312" data-name="Path 1312" d="M963.72,214.535s3.465-4.947,8.662-4.867c3.933.06,4.079,2.433,4.079,2.433a2.334,2.334,0,0,1,2.651,2.434Z" transform="translate(-957.105 -209.667)" fill="#ffc7ae"/>
        </g>
        <g id="Group_2729" data-name="Group 2729" transform="translate(46.179)">
          <path id="Path_1313" data-name="Path 1313" d="M1030.435,213.488s-.192-2.738,1.081-3.1a2.364,2.364,0,0,1,2.226.669s.954-4.016,4.516-4.138,9.985,3.347,6.042,6.572Z" transform="translate(-1021.279 -199.073)" fill="#feb19e"/>
          <path id="Path_1314" data-name="Path 1314" d="M1017.9,217.045a1.151,1.151,0,0,0,1.175,1.125h21.432a1.126,1.126,0,1,0,0-2.249h-21.432A1.151,1.151,0,0,0,1017.9,217.045Z" transform="translate(-1017.9 -201.503)" fill="#70b2dd"/>
          <path id="Path_1315" data-name="Path 1315" d="M1026.606,217.045a1.151,1.151,0,0,0,1.176,1.125h15.074a1.126,1.126,0,1,0,0-2.249h-15.074A1.151,1.151,0,0,0,1026.606,217.045Z" transform="translate(-1020.249 -201.503)" fill="#abdaf7"/>
          <path id="Path_1316" data-name="Path 1316" d="M1034.184,208.782l3.8-11.878a1.08,1.08,0,0,1,1.3-.692h0a1.019,1.019,0,0,1,.728,1.355l-4.542,11.534A1,1,0,0,1,1034.184,208.782Z" transform="translate(-1022.293 -196.177)" fill="#525559"/>
        </g>
      </g>
    </g>
    <g id="Group_2733" data-name="Group 2733" transform="translate(504.862 866.143)">
      <path id="Path_1317" data-name="Path 1317" d="M1070.795,171.516c-.414,2.4.487,4.534,2.012,4.775s3.1-1.506,3.51-3.9-.487-4.533-2.012-4.774S1071.208,169.12,1070.795,171.516Z" transform="translate(-1043.244 -152.314)" fill="#fff" stroke="#f230db" stroke-miterlimit="10" stroke-width="1"/>
      <path id="Path_1318" data-name="Path 1318" d="M1037.464,186.986h40.689a4.368,4.368,0,0,0,4.045-2.636c4.763-11.377,8.282-22.44,9.708-32.977a4.236,4.236,0,0,0-4.32-4.7h-41.245a4.289,4.289,0,0,0-4.3,3.549,164.028,164.028,0,0,1-8.685,31.218A4.192,4.192,0,0,0,1037.464,186.986Z" transform="translate(-1033.103 -146.67)" fill="#90c6e0"/>
      <path id="Path_1319" data-name="Path 1319" d="M1039.724,186.986h39.04a4.368,4.368,0,0,0,4.045-2.636c4.763-11.377,8.282-22.44,9.709-32.977a4.237,4.237,0,0,0-4.32-4.7h-39.589a4.3,4.3,0,0,0-4.3,3.549,163.457,163.457,0,0,1-8.678,31.218A4.187,4.187,0,0,0,1039.724,186.986Z" transform="translate(-1033.714 -146.67)" fill="#abdaf7"/>
      <g id="Group_2732" data-name="Group 2732" transform="translate(8.014 33.737)">
        <path id="Path_1320" data-name="Path 1320" d="M1044.078,211.951h15.631a5.315,5.315,0,0,0,5.03-3.432l4.679-15.642c-2.587.007-5.129-.007-7.625-.007-.832,0-1.664,0-2.488.007l-3.725,12.166a4.178,4.178,0,0,1-3.3,2.592l-5.846.876a2.377,2.377,0,0,0-1.985,1.789Z" transform="translate(-1044.078 -192.87)" fill="#90c6e0"/>
        <path id="Path_1321" data-name="Path 1321" d="M1055.314,207.635l1.32-.117a4.945,4.945,0,0,0,4.176-2.95l4.014-11.7c-.832,0-1.663,0-2.488.007l-3.725,12.166A4.177,4.177,0,0,1,1055.314,207.635Z" transform="translate(-1047.109 -192.87)" fill="#90c6e0" opacity="0.35" style="mix-blend-mode: multiply;isolation: isolate"/>
      </g>
      <path id="Path_1322" data-name="Path 1322" d="M1071.19,172.338c-.58,2.313.162,4.465,1.656,4.808s3.176-1.254,3.755-3.567-.162-4.465-1.657-4.808S1071.769,170.025,1071.19,172.338Z" transform="translate(-1043.324 -152.62)" fill="#fff"/>
    </g>
    <g id="Group_2734" data-name="Group 2734" transform="translate(392.691 918.961)">
      <rect id="Rectangle_488" data-name="Rectangle 488" width="185.849" height="3.651" fill="#70b2dd"/>
      <rect id="Rectangle_489" data-name="Rectangle 489" width="41.215" height="3.651" fill="#4e8fb7"/>
    </g>
    <g id="Group_2735" data-name="Group 2735" transform="translate(405.715 889.378)">
      <path id="Path_1323" data-name="Path 1323" d="M906.147,194.672l1.781-10.588,5.661.669-2.1,10.526Z" transform="translate(-899.708 -179.998)" fill="#70b2dd"/>
      <path id="Path_1324" data-name="Path 1324" d="M903.933,192.189l-1.961-13.068a.765.765,0,0,0-.888-.622h0a.741.741,0,0,0-.635.838l2.174,13.521H901.8L898.882,182.5a.794.794,0,0,0-.954-.537h0a.754.754,0,0,0-.572.924l2.724,9.971,2.735,1.217Z" transform="translate(-897.33 -178.489)" fill="#4e8fb7"/>
      <path id="Path_1325" data-name="Path 1325" d="M898.482,197.25v13.48a2.212,2.212,0,0,0,2.259,2.161h8.138a2.212,2.212,0,0,0,2.259-2.161V197.25Z" transform="translate(-897.641 -183.55)" fill="#abdaf7"/>
      <rect id="Rectangle_490" data-name="Rectangle 490" width="12.657" height="3.162" transform="translate(0.842 13.7)" fill="#90c6e0"/>
    </g>
    <g id="Group_2736" data-name="Group 2736" transform="translate(553.447 815.513)">
      <ellipse id="Ellipse_93" data-name="Ellipse 93" cx="18.005" cy="17.226" rx="18.005" ry="17.226" transform="translate(-12 -2.761)" fill="#70b2dd" opacity="0.35" style="mix-blend-mode: multiply;isolation: isolate"/>
      <ellipse id="Ellipse_94" data-name="Ellipse 94" cx="16.942" cy="16.209" rx="16.942" ry="16.209" transform="translate(-10.637 -3)" fill="#70b2dd"/>
      <ellipse id="Ellipse_95" data-name="Ellipse 95" cx="12.464" cy="11.925" rx="12.464" ry="11.925" transform="translate(-6.16 1.284)" fill="#d9f1ff"/>
      <path id="Path_1326" data-name="Path 1326" d="M906.325,101.462h6.14V93.524a1.187,1.187,0,0,1,2.371,0v10.021h-8.511a1.042,1.042,0,1,1,0-2.083Z" transform="translate(-907.039 -88.795)" fill="#70b2dd"/>
    </g>
  </g>
</svg>
